<svg width="500" height="500" viewBox="0 0 500 500" fill="none" xmlns="http://www.w3.org/2000/svg">
<path d="M283.511 95.9H238.381V152.87H283.511V95.9Z" fill="#EBEBEB"/>
<path d="M264.362 151.59H258.102V153.11H264.362V151.59Z" fill="#E0E0E0"/>
<path d="M262.39 115.51L254.08 116.73L250.98 124.54L256.19 131.13L264.5 129.91L267.6 122.1L262.39 115.51Z" fill="#E0E0E0"/>
<path d="M266.281 120.56L257.971 121.78L254.861 129.58L260.071 136.18L268.391 134.96L271.491 127.15L266.281 120.56Z" fill="#FAFAFA"/>
<path d="M265.25 95.13H258.99V96.43H265.25V95.13Z" fill="#E0E0E0"/>
<path d="M340.621 118.97H309.961V184.59H340.621V118.97Z" fill="#F5F5F5"/>
<path d="M379.561 189.18H341.891V252.58H379.561V189.18Z" fill="#F5F5F5"/>
<path d="M384.141 117.84H419.911V59.63H421.181V117.84H454.291V58.34H384.141V117.84Z" fill="#F5F5F5"/>
<path d="M340.621 189.18H309.961V252.58H340.621V189.18Z" fill="#F5F5F5"/>
<path d="M454.282 189.18H421.182V252.58H454.282V189.18Z" fill="#F5F5F5"/>
<path d="M379.561 118.97H341.891V184.59H379.561V118.97Z" fill="#F5F5F5"/>
<path d="M454.282 118.97H421.182V184.59H454.282V118.97Z" fill="#F5F5F5"/>
<path d="M340.621 253.72H309.961V310.85H340.621V253.72Z" fill="#F5F5F5"/>
<path d="M340.611 117.84V59.63H341.891V117.84H379.561V58.34H309.961V117.84H340.611Z" fill="#F5F5F5"/>
<path d="M379.561 253.72H341.891V310.85H379.561V253.72Z" fill="#F5F5F5"/>
<path d="M454.282 253.72H421.182V310.85H454.282V253.72Z" fill="#F5F5F5"/>
<path d="M419.911 118.97H384.141V184.59H419.911V118.97Z" fill="#F5F5F5"/>
<path d="M419.911 253.72H384.141V310.85H419.911V253.72Z" fill="#F5F5F5"/>
<path d="M419.911 189.18H384.141V252.58H419.911V189.18Z" fill="#F5F5F5"/>
<path d="M103.461 118.97H72.8008V184.59H103.461V118.97Z" fill="#F5F5F5"/>
<path d="M142.4 189.18H104.73V252.58H142.4V189.18Z" fill="#F5F5F5"/>
<path d="M146.98 117.84H182.75V59.63H184.03V117.84H217.13V58.34H146.98V117.84Z" fill="#F5F5F5"/>
<path d="M103.461 189.18H72.8008V252.58H103.461V189.18Z" fill="#F5F5F5"/>
<path d="M217.131 189.18H184.031V252.58H217.131V189.18Z" fill="#F5F5F5"/>
<path d="M142.4 118.97H104.73V184.59H142.4V118.97Z" fill="#F5F5F5"/>
<path d="M217.131 118.97H184.031V184.59H217.131V118.97Z" fill="#F5F5F5"/>
<path d="M103.461 253.72H72.8008V310.85H103.461V253.72Z" fill="#F5F5F5"/>
<path d="M103.461 117.84V59.63H104.731V117.84H142.401V58.34H72.8008V117.84H103.461Z" fill="#F5F5F5"/>
<path d="M142.4 253.72H104.73V310.85H142.4V253.72Z" fill="#F5F5F5"/>
<path d="M217.131 253.72H184.031V310.85H217.131V253.72Z" fill="#F5F5F5"/>
<path d="M182.75 118.97H146.98V184.59H182.75V118.97Z" fill="#F5F5F5"/>
<path d="M182.75 253.72H146.98V310.85H182.75V253.72Z" fill="#F5F5F5"/>
<path d="M182.75 189.18H146.98V252.58H182.75V189.18Z" fill="#F5F5F5"/>
<path d="M382.271 412.02V441.41H425.251H472.651V412.02H382.271Z" fill="#EBEBEB"/>
<path d="M378.48 403.8V412.02H475.81V403.8H425.25H378.48Z" fill="#E0E0E0"/>
<path d="M427.15 441.41H472.65V412.02H475.81V403.8H425.25V411.26L427.15 441.41Z" fill="#E0E0E0"/>
<path d="M413.25 416.76H394.92V421.18H413.25V416.76Z" fill="#E0E0E0"/>
<path d="M416.101 426.71H392.561V436.05H416.101V426.71Z" fill="#F5F5F5"/>
<path d="M404.601 371.35L404.471 360.31L443.181 363.62L444.391 374.55L404.601 371.35Z" fill="#EBEBEB"/>
<path d="M412.959 365.327L412.789 367.31L437.001 369.381L437.17 367.398L412.959 365.327Z" fill="#E0E0E0"/>
<path d="M399.991 360.86L399.971 349.81L438.651 353.54L439.631 363.42L399.991 360.86Z" fill="#E0E0E0"/>
<path d="M399.981 351.32L399.961 358.77L437.641 361.55L437.011 354.67L399.981 351.32Z" fill="white"/>
<path d="M434.781 357.54C434.326 357.582 433.867 357.582 433.411 357.54L429.711 357.25C426.581 356.98 422.271 356.58 417.501 356.1C412.731 355.62 408.431 355.15 405.311 354.79L401.621 354.33C401.167 354.299 400.718 354.219 400.281 354.09C400.734 354.048 401.189 354.048 401.641 354.09L405.341 354.38C408.471 354.65 412.791 355.06 417.551 355.54C422.311 356.02 426.631 356.48 429.751 356.85L433.441 357.3C433.895 357.332 434.344 357.413 434.781 357.54Z" fill="#F5F5F5"/>
<path d="M434.701 358.47C434.246 358.52 433.787 358.52 433.331 358.47L429.581 358.29C426.431 358.12 422.071 357.85 417.261 357.51C412.451 357.17 408.091 356.84 404.941 356.58L401.221 356.24C400.762 356.219 400.307 356.152 399.861 356.04C400.317 355.99 400.776 355.99 401.231 356.04L404.971 356.22C408.131 356.39 412.491 356.67 417.301 357C422.111 357.33 426.461 357.67 429.611 357.94L433.341 358.28C433.799 358.303 434.255 358.367 434.701 358.47Z" fill="#F5F5F5"/>
<path d="M405.05 381.54L404.9 370.49L443.62 373.77L444.72 383.63L405.05 381.54Z" fill="#E0E0E0"/>
<path d="M409.311 381.77C408.987 379.975 408.83 378.154 408.841 376.33C408.678 374.513 408.695 372.684 408.891 370.87C409.216 372.665 409.374 374.486 409.361 376.31C409.524 378.127 409.507 379.956 409.311 381.77Z" fill="#F5F5F5"/>
<path d="M410.772 371C411.066 372.794 411.194 374.612 411.152 376.43C411.272 378.244 411.225 380.065 411.012 381.87C410.706 380.077 410.578 378.258 410.632 376.44C410.505 374.626 410.552 372.805 410.772 371Z" fill="#F5F5F5"/>
<path d="M414.291 375.85C421.041 376.6 428.981 377.02 435.841 377.63L414.291 375.85Z" fill="white"/>
<path d="M435.841 377.63C434.784 377.693 433.724 377.666 432.671 377.55C430.671 377.45 428.021 377.28 425.041 377.06C422.061 376.84 419.371 376.59 417.431 376.35C416.371 376.284 415.319 376.117 414.291 375.85C415.35 375.818 416.409 375.865 417.461 375.99L425.081 376.54C428.081 376.76 430.751 376.98 432.701 377.19C433.758 377.248 434.809 377.396 435.841 377.63Z" fill="#F5F5F5"/>
<path d="M438.66 383.32C438.329 381.694 438.162 380.039 438.16 378.38C437.988 376.718 437.988 375.042 438.16 373.38C438.497 375.005 438.664 376.661 438.66 378.32C438.844 379.982 438.844 381.658 438.66 383.32Z" fill="#F5F5F5"/>
<path d="M441.051 383.44C440.372 380.181 440.037 376.859 440.051 373.53C440.475 375.142 440.726 376.795 440.801 378.46C441.055 380.107 441.139 381.776 441.051 383.44Z" fill="#F5F5F5"/>
<path d="M420 378.33C424.26 378.62 427.51 378.83 430.91 378.91L420 378.33Z" fill="white"/>
<path d="M431 378.91C427.353 379.064 423.7 378.87 420.09 378.33C421.909 378.153 423.741 378.153 425.56 378.33C427.387 378.353 429.209 378.547 431 378.91Z" fill="#F5F5F5"/>
<path d="M407.64 403.12L406.92 392.09L445.75 393.32L447.37 403.11L407.64 403.12Z" fill="#EBEBEB"/>
<path d="M409.181 401.73L446.971 401.19L445.921 394.33L408.471 393.63L409.181 401.73Z" fill="white"/>
<path d="M408.7 392.31L408.34 381.26L447.12 383.79L448.41 393.63L408.7 392.31Z" fill="#F5F5F5"/>
<path d="M416.906 386.084L416.777 388.069L441.026 389.646L441.155 387.66L416.906 386.084Z" fill="#E0E0E0"/>
<path d="M446.31 397.15C445.818 397.232 445.319 397.269 444.82 397.26L440.82 397.36C437.41 397.42 432.69 397.47 427.48 397.49C422.27 397.51 417.56 397.49 414.14 397.49L410.14 397.42C409.645 397.435 409.15 397.404 408.66 397.33C409.149 397.246 409.644 397.21 410.14 397.22L414.14 397.12C417.55 397.06 422.27 397.02 427.48 396.99C432.69 396.96 437.41 396.99 440.82 396.99L444.87 397.06C445.352 397.048 445.834 397.079 446.31 397.15Z" fill="#EBEBEB"/>
<path d="M446.752 399.29C446.259 399.37 445.76 399.396 445.262 399.37H441.182C437.752 399.37 433.002 399.37 427.752 399.26C422.502 399.15 417.752 399.09 414.322 399L410.252 398.86C409.752 398.87 409.253 398.83 408.762 398.74C409.255 398.667 409.754 398.64 410.252 398.66H414.322C417.762 398.66 422.512 398.66 427.762 398.77C433.012 398.88 437.762 398.94 441.192 399.03L445.262 399.17C445.761 399.173 446.259 399.213 446.752 399.29Z" fill="#EBEBEB"/>
<path d="M465.17 441.41C465.17 441.56 368.83 441.67 250.01 441.67C131.19 441.67 34.8301 441.56 34.8301 441.41C34.8301 441.26 131.15 441.15 250.01 441.15C368.87 441.15 465.17 441.27 465.17 441.41Z" fill="#263238"/>
<path d="M68.0006 317.25C62.7106 318.1 60.3406 324.6 60.8006 329.94C61.2606 335.28 63.4606 340.5 62.8706 345.83C62.1306 352.59 57.0106 358.31 56.4206 365.09C55.7206 373.09 61.4206 380.18 63.0606 388.03C63.8806 391.85 63.7706 395.88 65.1906 399.52C66.4016 402.616 68.6488 405.197 71.5492 406.822C74.4496 408.447 77.8238 409.016 81.0969 408.432C84.3699 407.849 87.3392 406.148 89.4988 403.62C91.6585 401.092 92.8748 397.894 92.9406 394.57C93.0506 388.43 89.2706 382.64 89.7306 376.52C90.0706 371.99 92.7306 367.7 92.1506 363.2C91.4706 357.84 86.5106 354.04 84.7606 348.93C83.0106 343.82 84.6906 338.19 84.0806 332.82C83.0006 323.19 77.6306 316.47 68.0006 317.25Z" fill="#5C4AE4"/>
<path d="M40.9409 363.88C40.0009 372.8 44.0009 383.3 48.5809 391C53.235 398.759 60.2406 404.833 68.5809 408.34C69.5109 408.73 70.6709 409.05 71.4609 408.42C71.7387 408.112 71.9475 407.749 72.0734 407.354C72.1993 406.959 72.2393 406.542 72.1909 406.13C72.2514 396.657 69.2412 387.42 63.6111 379.801C57.981 372.182 50.0342 366.593 40.9609 363.87" fill="#5C4AE4"/>
<g opacity="0.1">
<path opacity="0.1" d="M40.9409 363.88C40.0009 372.8 44.0009 383.3 48.5809 391C53.235 398.759 60.2406 404.833 68.5809 408.34C69.5109 408.73 70.6709 409.05 71.4609 408.42C71.7387 408.112 71.9475 407.749 72.0734 407.354C72.1993 406.959 72.2393 406.542 72.1909 406.13C72.2514 396.657 69.2412 387.42 63.6111 379.801C57.981 372.182 50.0342 366.593 40.9609 363.87" fill="black"/>
</g>
<path d="M79.8214 427C79.7142 426.848 79.6268 426.684 79.5614 426.51C79.4014 426.12 79.1814 425.64 78.9314 425.05C78.3914 423.77 77.5914 421.94 76.5714 419.68C74.5714 415.18 71.5114 409.05 67.7114 402.53C64.4503 396.976 60.9125 391.589 57.1114 386.39C55.6514 384.39 54.4414 382.8 53.6014 381.71L52.6014 380.43C52.3814 380.14 52.2714 379.98 52.2914 379.97C52.4323 380.092 52.5628 380.226 52.6814 380.37L53.6814 381.58C54.5814 382.64 55.8314 384.21 57.3314 386.18C61.2282 391.331 64.8178 396.707 68.0814 402.28C71.3356 407.856 74.2573 413.619 76.8314 419.54C77.8314 421.81 78.5614 423.67 79.0414 424.97L79.5914 426.47C79.6849 426.639 79.7619 426.816 79.8214 427Z" fill="#263238"/>
<path d="M74.0715 341.93C74.1274 342.214 74.1608 342.501 74.1715 342.79C74.2115 343.397 74.2715 344.217 74.3515 345.25C74.4915 347.43 74.6915 350.51 74.9315 354.25C75.4115 361.89 76.0915 372.43 76.9315 384.08C77.7715 395.73 78.5615 406.26 79.1515 413.89C79.4415 417.67 79.6715 420.74 79.8415 422.89C79.9115 423.89 79.9615 424.74 80.0115 425.34C80.0359 425.626 80.0359 425.914 80.0115 426.2C79.9453 425.921 79.9018 425.636 79.8815 425.35C79.8215 424.75 79.7315 423.93 79.6215 422.9C79.4215 420.72 79.1315 417.65 78.7715 413.9C78.0915 406.28 77.2215 395.74 76.4015 384.09C75.5815 372.44 75.0015 362 74.5715 354.31C74.4015 350.52 74.2515 347.44 74.1515 345.26C74.1515 344.26 74.0915 343.4 74.0715 342.8C74.0517 342.51 74.0517 342.22 74.0715 341.93Z" fill="#263238"/>
<path d="M65.8613 414.28H88.2113V430.69C88.2113 433.533 87.0819 436.26 85.0715 438.27C83.0611 440.281 80.3344 441.41 77.4913 441.41C74.745 441.411 72.1026 440.36 70.1084 438.472C68.1141 436.583 66.9198 434.002 66.7713 431.26L65.8613 414.28Z" fill="#455A64"/>
<path d="M356.919 279.29C355.675 278.371 354.142 277.93 352.599 278.05C352.599 277.21 352.599 276.7 352.599 276.7H328.999C328.999 276.7 328.259 292.27 340.179 292.82C345.519 293.07 348.569 290.68 350.319 287.67C351.198 287.878 352.097 287.989 352.999 288C354.317 288.058 355.618 287.69 356.709 286.95C357.31 286.48 357.787 285.869 358.097 285.172C358.407 284.474 358.542 283.712 358.489 282.95C358.522 282.261 358.398 281.573 358.126 280.939C357.854 280.305 357.441 279.741 356.919 279.29ZM355.299 285.08C354.299 285.83 352.489 285.72 351.299 285.51C351.893 283.854 352.279 282.131 352.449 280.38C353.483 280.261 354.526 280.504 355.399 281.07C355.655 281.307 355.853 281.6 355.978 281.926C356.103 282.252 356.151 282.603 356.119 282.95C356.166 283.345 356.115 283.745 355.972 284.116C355.83 284.487 355.599 284.818 355.299 285.08Z" fill="#5C4AE4"/>
<path d="M345.67 275.28C345.788 275.105 345.857 274.901 345.87 274.69C345.834 274.389 345.723 274.102 345.549 273.854C345.374 273.606 345.141 273.405 344.87 273.27C344.472 273.077 344.052 272.933 343.62 272.84C343.074 272.721 342.56 272.49 342.11 272.16C341.861 271.943 341.663 271.673 341.529 271.371C341.396 271.068 341.332 270.74 341.34 270.41C341.341 269.682 341.545 268.969 341.93 268.35C342.74 267.04 344.2 266.21 345.23 264.91C345.748 264.199 346.094 263.377 346.241 262.51C346.389 261.642 346.333 260.753 346.08 259.91C345.831 258.995 345.353 258.158 344.69 257.48C343.938 256.818 343.088 256.279 342.17 255.88C341.144 255.458 340.23 254.804 339.5 253.97C339.151 253.503 338.912 252.963 338.8 252.39C338.666 251.788 338.747 251.158 339.03 250.61C339.187 250.328 339.41 250.087 339.68 249.91L339.95 250.36C339.093 250.893 338.417 251.674 338.012 252.598C337.607 253.523 337.491 254.548 337.68 255.54C337.842 256.481 338.305 257.344 339 258C339.78 258.598 340.471 259.305 341.05 260.1C341.294 260.546 341.412 261.051 341.39 261.56C341.375 262.064 341.241 262.557 341 263C340.559 263.784 339.934 264.45 339.18 264.94C337.73 265.86 336.24 266.32 335.13 267.16C334.628 267.518 334.21 267.98 333.904 268.516C333.599 269.051 333.413 269.646 333.36 270.26C333.266 271.196 333.428 272.14 333.83 272.99C334.196 273.707 334.719 274.332 335.36 274.82L335.21 274.75C335.073 274.673 334.943 274.586 334.82 274.49C334.331 274.112 333.931 273.63 333.65 273.08C333.198 272.202 333 271.215 333.08 270.23C333.123 269.61 333.289 269.005 333.57 268.45C333.895 267.831 334.352 267.292 334.91 266.87C336.06 265.97 337.59 265.47 338.91 264.59C339.595 264.127 340.164 263.511 340.57 262.79C340.778 262.425 340.888 262.011 340.888 261.59C340.888 261.169 340.778 260.756 340.57 260.39C339.996 259.636 339.323 258.964 338.57 258.39C337.795 257.66 337.284 256.692 337.12 255.64C336.912 254.544 337.042 253.41 337.492 252.389C337.942 251.368 338.691 250.507 339.64 249.92L339.9 250.37C339.703 250.502 339.539 250.676 339.42 250.88C339.236 251.345 339.18 251.851 339.258 252.345C339.335 252.839 339.543 253.303 339.86 253.69C340.544 254.455 341.392 255.056 342.34 255.45C343.305 255.872 344.196 256.446 344.98 257.15C345.699 257.89 346.216 258.802 346.48 259.8C346.739 260.713 346.783 261.674 346.61 262.607C346.436 263.54 346.05 264.421 345.48 265.18C344.35 266.55 342.91 267.35 342.16 268.54C341.41 269.73 341.34 271.23 342.21 271.94C343.08 272.65 344.21 272.63 344.89 273.09C345.181 273.247 345.427 273.477 345.602 273.757C345.778 274.038 345.877 274.359 345.89 274.69C345.88 274.86 345.821 275.023 345.72 275.16C345.72 275.25 345.68 275.28 345.67 275.28Z" fill="#263238"/>
<path d="M270.669 358.78L268.759 441.41H265.119L265.349 358.99L270.669 358.78Z" fill="#263238"/>
<path d="M283.84 357.86L301.56 441.41H305.62L290.87 357.86H283.84Z" fill="#263238"/>
<path d="M250.619 358.78L231.009 441.41H226.949L244.739 358.44L250.619 358.78Z" fill="#263238"/>
<path d="M306.85 267.94C306.85 267.94 329.31 266.66 327.07 292.65C324.83 318.64 323.54 345 315.19 354C306.84 363 222.76 363.31 215.7 355.93C208.64 348.55 229.18 348.87 233.03 348.87C236.88 348.87 260.63 351.11 268.33 330.87C276.03 310.63 274.11 266.66 306.85 267.94Z" fill="#263238"/>
<path d="M308.29 268C308.29 268 325.46 271.52 323.86 289.49C322.26 307.46 317.76 338.92 309.41 346.94C301.06 354.96 268.41 356.71 250.68 355.61C230.14 354.32 217.18 350.41 217.18 350.41C217.18 350.41 213.43 352.82 214.56 354.41C215.69 356 225.71 362.21 274.26 361.17C322.81 360.13 319.44 352.97 321.45 345.17C323.46 337.37 327.7 295.63 327.11 286.46C326.52 277.29 321.9 269.56 308.29 268Z" fill="#455A64"/>
<path d="M260.049 191.73C262.751 190.799 265.685 190.784 268.397 191.687C271.108 192.591 273.446 194.364 275.049 196.73C277.219 200.09 277.729 204.31 279.939 207.64C281.509 209.99 283.829 211.72 285.749 213.8C287.669 215.88 289.239 218.63 288.749 221.42C288.289 224.03 286.079 226.35 286.519 228.97C286.939 231.42 289.519 233.02 290.069 235.46C290.659 238.33 287.899 241.01 284.999 241.46C282.099 241.91 279.219 240.79 276.489 239.71C273.759 238.63 270.859 237.55 267.969 238.07C264.619 238.68 262.049 241.31 259.119 243.07C256.03 244.835 252.494 245.663 248.942 245.451C245.39 245.24 241.977 243.999 239.119 241.88C236.919 240.19 234.989 237.57 235.529 234.88C236.029 232.34 238.529 230.58 239.189 228.09C240.249 224.39 237.189 220.61 237.639 216.78C238.259 211.64 244.639 209.29 246.919 204.65C248.029 202.42 248.129 199.82 249.099 197.53C250.069 195.24 252.629 193.2 254.909 194.18" fill="#263238"/>
<path d="M257.888 238.51C258.218 236.68 257.628 228.98 257.628 228.98C257.628 228.98 250.808 228.12 250.508 221.15C250.208 214.18 250.908 198.15 250.908 198.15L263.478 192.15L274.478 204.65L274.688 238.44L257.888 238.51Z" fill="#FFBE9D"/>
<path d="M251.799 210.44C251.801 210.611 251.853 210.777 251.949 210.918C252.045 211.06 252.18 211.17 252.338 211.235C252.496 211.299 252.67 211.316 252.837 211.283C253.005 211.25 253.159 211.168 253.28 211.048C253.402 210.928 253.485 210.775 253.52 210.608C253.555 210.441 253.54 210.267 253.477 210.108C253.414 209.95 253.306 209.813 253.166 209.716C253.025 209.618 252.86 209.564 252.689 209.56C252.455 209.56 252.23 209.652 252.063 209.817C251.896 209.982 251.801 210.206 251.799 210.44Z" fill="#263238"/>
<path d="M251.24 208.88C251.35 209 252.01 208.45 252.94 208.41C253.87 208.37 254.57 208.85 254.67 208.72C254.77 208.59 254.61 208.45 254.3 208.23C253.894 207.947 253.406 207.807 252.912 207.83C252.419 207.854 251.947 208.04 251.57 208.36C251.28 208.6 251.19 208.83 251.24 208.88Z" fill="#263238"/>
<path d="M261.999 210.44C261.986 210.561 261.999 210.684 262.036 210.8C262.074 210.917 262.135 211.024 262.217 211.114C262.298 211.205 262.398 211.278 262.51 211.328C262.621 211.377 262.742 211.403 262.864 211.403C262.986 211.403 263.107 211.377 263.218 211.328C263.33 211.278 263.43 211.205 263.511 211.114C263.593 211.024 263.655 210.917 263.692 210.8C263.73 210.684 263.742 210.561 263.729 210.44C263.742 210.319 263.73 210.196 263.692 210.08C263.655 209.963 263.593 209.856 263.511 209.766C263.43 209.675 263.33 209.602 263.218 209.552C263.107 209.503 262.986 209.477 262.864 209.477C262.742 209.477 262.621 209.503 262.51 209.552C262.398 209.602 262.298 209.675 262.217 209.766C262.135 209.856 262.074 209.963 262.036 210.08C261.999 210.196 261.986 210.319 261.999 210.44Z" fill="#263238"/>
<path d="M261.598 209.06C261.708 209.18 262.368 208.63 263.298 208.59C264.228 208.55 264.928 209.03 265.028 208.9C265.128 208.77 264.968 208.63 264.658 208.41C264.255 208.129 263.77 207.988 263.278 208.01C262.784 208.034 262.311 208.216 261.928 208.53C261.648 208.78 261.548 209 261.598 209.06Z" fill="#263238"/>
<path d="M258.089 217.1C257.595 216.953 257.084 216.876 256.569 216.87C256.329 216.87 256.099 216.81 256.059 216.64C256.037 216.374 256.089 216.108 256.209 215.87C256.419 215.25 256.649 214.59 256.879 213.87C257.506 212.189 258.011 210.464 258.389 208.71C257.632 210.326 257.001 211.998 256.499 213.71C256.279 214.41 256.059 215.07 255.849 215.71C255.71 216.024 255.675 216.375 255.749 216.71C255.781 216.798 255.834 216.877 255.904 216.94C255.974 217.003 256.058 217.048 256.149 217.07C256.282 217.088 256.416 217.088 256.549 217.07C257.058 217.154 257.577 217.164 258.089 217.1Z" fill="#263238"/>
<path d="M257.629 229C260.857 228.895 263.984 227.853 266.629 226C266.629 226 264.509 231.08 257.709 230.67L257.629 229Z" fill="#EB996E"/>
<path d="M258.429 219.56C258.486 219.266 258.615 218.99 258.803 218.756C258.991 218.522 259.234 218.338 259.509 218.22C259.699 218.134 259.905 218.089 260.114 218.089C260.323 218.089 260.529 218.134 260.719 218.22C260.902 218.311 261.053 218.455 261.151 218.634C261.249 218.813 261.29 219.017 261.269 219.22C261.213 219.453 261.087 219.664 260.909 219.825C260.73 219.986 260.507 220.088 260.269 220.12C259.804 220.182 259.331 220.148 258.879 220.02C258.752 220 258.63 219.956 258.519 219.89C258.465 219.856 258.421 219.806 258.395 219.747C258.368 219.689 258.359 219.624 258.369 219.56" fill="#EB996E"/>
<path d="M260.75 217.07C260.81 217.07 260.92 217.32 260.89 217.77C260.834 218.373 260.56 218.934 260.12 219.35C259.683 219.763 259.11 220.002 258.51 220.02C258.05 220.02 257.79 219.9 257.81 219.84C257.83 219.78 258.9 219.78 259.76 218.97C260.62 218.16 260.6 217.06 260.75 217.07Z" fill="#263238"/>
<path d="M250.339 197.36C250.589 199.379 251.567 201.237 253.09 202.586C254.612 203.936 256.574 204.684 258.609 204.69L256.719 200.53C258.399 202.48 260.139 204.53 262.449 205.65C264.759 206.77 267.769 206.95 269.729 205.27C270.369 206.98 270.359 208.87 270.949 210.59C271.539 212.31 272.949 219.43 274.709 219.15C276.469 218.87 277.539 211.74 277.959 210.15C278.463 207.889 278.431 205.542 277.863 203.296C277.295 201.05 276.207 198.969 274.689 197.22C272.898 195.132 270.648 193.489 268.114 192.42C265.58 191.351 262.833 190.886 260.089 191.06C257.642 191.168 255.282 192 253.309 193.45C251.623 194.795 250.448 196.675 249.979 198.78" fill="#263238"/>
<path d="M241 228.76C240.835 228.749 240.673 228.712 240.52 228.65C240.075 228.515 239.646 228.334 239.24 228.11C237.712 227.295 236.449 226.06 235.6 224.55C234.942 223.435 234.543 222.187 234.432 220.898C234.321 219.608 234.502 218.31 234.96 217.1C235.502 215.669 236.376 214.387 237.51 213.36C238.726 212.254 240.219 211.497 241.83 211.17C242.578 211.064 243.275 210.733 243.83 210.22C244.297 209.655 244.567 208.953 244.6 208.22C244.72 206.75 244.14 205.32 243.98 203.88C243.805 202.494 244.09 201.089 244.79 199.88C245.405 198.833 246.302 197.98 247.38 197.42C248.38 196.91 249.27 196.58 250.04 196.24C250.714 195.978 251.358 195.642 251.96 195.24C252.452 194.874 252.893 194.444 253.27 193.96C253.214 194.114 253.137 194.259 253.04 194.39C252.767 194.779 252.429 195.117 252.04 195.39C251.444 195.832 250.8 196.204 250.12 196.5C249.35 196.86 248.44 197.22 247.52 197.73C246.517 198.276 245.689 199.094 245.13 200.09C244.482 201.223 244.229 202.538 244.41 203.83C244.57 205.2 245.18 206.63 245.07 208.27C245.036 209.122 244.72 209.938 244.17 210.59C243.544 211.183 242.752 211.57 241.9 211.7C240.428 212.01 239.057 212.684 237.913 213.661C236.769 214.637 235.887 215.885 235.35 217.29C234.908 218.438 234.724 219.67 234.812 220.897C234.901 222.124 235.258 223.317 235.86 224.39C236.658 225.866 237.84 227.099 239.28 227.96C240.34 228.54 241 228.71 241 228.76Z" fill="#263238"/>
<path d="M286.269 237.92C286.269 237.92 286.859 237.52 287.889 236.78C289.38 235.793 290.565 234.407 291.309 232.78C291.764 231.651 291.834 230.403 291.509 229.23C291.328 228.595 290.983 228.019 290.509 227.56C289.968 227.087 289.37 226.683 288.729 226.36C287.99 225.963 287.368 225.381 286.922 224.671C286.477 223.961 286.224 223.147 286.189 222.31C286.119 220.5 287.239 219 287.639 217.39C287.98 215.772 287.713 214.084 286.889 212.65C286.127 211.284 285.108 210.079 283.889 209.1C281.599 207.18 279.209 205.77 277.559 204.1C276.199 202.857 275.186 201.283 274.619 199.53C274.482 199.051 274.401 198.558 274.379 198.06C274.353 197.888 274.353 197.712 274.379 197.54C274.462 198.193 274.595 198.838 274.779 199.47C275.404 201.151 276.435 202.652 277.779 203.84C279.419 205.41 281.779 206.76 284.159 208.71C285.422 209.722 286.478 210.968 287.269 212.38C288.164 213.924 288.453 215.745 288.079 217.49C287.619 219.24 286.549 220.68 286.629 222.27C286.653 223.047 286.886 223.803 287.303 224.459C287.72 225.115 288.306 225.648 288.999 226C289.673 226.347 290.301 226.777 290.869 227.28C291.384 227.803 291.756 228.451 291.949 229.16C292.277 230.421 292.186 231.755 291.689 232.96C291.267 233.932 290.651 234.806 289.879 235.53C289.298 236.076 288.668 236.568 287.999 237C287.459 237.35 286.999 237.6 286.729 237.75C286.583 237.827 286.429 237.884 286.269 237.92Z" fill="#263238"/>
<path d="M250.11 205.7C251.077 204.897 251.757 203.802 252.05 202.58C252.335 201.363 252.486 200.119 252.5 198.87C252.5 198.51 252.5 198.04 252.12 197.95C251.74 197.86 251.5 198.2 251.34 198.51C250.117 200.825 249.685 203.477 250.11 206.06L250.33 205.85" fill="#263238"/>
<path d="M232.659 436.46L232.469 427.46L249.309 427L249.719 440.15L248.719 440.25C244.079 440.63 225.099 441.87 221.969 441.01C218.439 440.06 232.659 436.46 232.659 436.46Z" fill="#5C4AE4"/>
<g opacity="0.5">
<path opacity="0.5" d="M243.609 440.2C243.82 438.77 244.554 437.469 245.669 436.55C246.754 435.629 248.148 435.154 249.569 435.22L249.699 439.92L243.609 440.2Z" fill="white"/>
</g>
<g opacity="0.4">
<path opacity="0.4" d="M225.72 438.47C225.72 438.47 220.72 440.05 221.39 440.86C222.06 441.67 241.26 441.14 249.72 440.16V439.79L227.29 440.6C227.29 440.6 226.7 438.48 225.72 438.47Z" fill="white"/>
</g>
<path d="M250 439.77H249.71L248.88 439.84L245.82 440.06C243.24 440.22 239.67 440.4 235.72 440.52C231.77 440.64 228.2 440.65 225.61 440.63H222.55H221.72H221.43H221.72H222.55H225.61C228.2 440.63 231.77 440.56 235.72 440.45C239.67 440.34 243.23 440.18 245.82 440.06L248.88 439.9H249.71L250 439.77Z" fill="#263238"/>
<path d="M227.28 440.86C227.126 440.356 226.918 439.87 226.66 439.41C226.351 438.988 225.992 438.605 225.59 438.27C226.102 438.478 226.539 438.837 226.841 439.3C227.143 439.763 227.296 440.307 227.28 440.86Z" fill="#263238"/>
<path d="M232.179 438.2C232.129 438.2 231.879 437.95 231.629 437.57C231.379 437.19 231.199 436.86 231.249 436.82C231.299 436.78 231.539 437.08 231.799 437.46C231.976 437.677 232.105 437.929 232.179 438.2Z" fill="#263238"/>
<path d="M233.518 437.44C233.518 437.49 233.208 437.32 232.918 437.06C232.628 436.8 232.408 436.57 232.438 436.53C232.468 436.49 232.748 436.65 233.048 436.91C233.348 437.17 233.558 437.4 233.518 437.44Z" fill="#263238"/>
<path d="M234.34 435.83C234.062 435.945 233.76 435.993 233.46 435.97C233.165 436.005 232.866 435.981 232.58 435.9C233.153 435.737 233.756 435.713 234.34 435.83Z" fill="#263238"/>
<path d="M234.6 434.7C234.309 434.91 233.958 435.019 233.6 435.01C233.264 435.073 232.917 435.038 232.6 434.91C232.929 434.846 233.264 434.812 233.6 434.81C233.93 434.748 234.264 434.711 234.6 434.7Z" fill="#263238"/>
<path d="M231.56 436.75C231.202 436.809 230.837 436.809 230.48 436.75C230.087 436.711 229.699 436.638 229.32 436.53C229.092 436.47 228.87 436.386 228.66 436.28C228.53 436.207 228.43 436.09 228.38 435.95C228.36 435.87 228.364 435.786 228.39 435.708C228.417 435.63 228.465 435.561 228.53 435.51C228.935 435.296 229.402 435.228 229.852 435.318C230.301 435.407 230.707 435.648 231 436C231.171 436.208 231.297 436.45 231.37 436.71C231.392 436.809 231.392 436.911 231.37 437.01C231.249 436.679 231.073 436.372 230.85 436.1C230.6 435.819 230.273 435.617 229.91 435.52C229.481 435.389 229.017 435.432 228.62 435.64C228.46 435.78 228.53 435.98 228.72 436.09C228.918 436.191 229.126 436.271 229.34 436.33C229.706 436.446 230.08 436.533 230.46 436.59C231.15 436.73 231.56 436.71 231.56 436.75Z" fill="#263238"/>
<path d="M231.29 436.81C231.143 436.59 231.089 436.32 231.14 436.06C231.167 435.776 231.26 435.502 231.41 435.26C231.498 435.097 231.626 434.96 231.781 434.86C231.937 434.76 232.116 434.702 232.3 434.69C232.411 434.71 232.51 434.772 232.575 434.864C232.641 434.955 232.667 435.069 232.65 435.18C232.624 435.352 232.566 435.519 232.48 435.67C232.341 435.91 232.173 436.132 231.98 436.33C231.822 436.531 231.616 436.69 231.38 436.79C231.38 436.79 231.59 436.59 231.88 436.24C232.041 436.032 232.185 435.812 232.31 435.58C232.45 435.34 232.54 434.93 232.31 434.89C232.08 434.85 231.77 435.15 231.61 435.37C231.466 435.585 231.368 435.826 231.32 436.08C231.282 436.321 231.272 436.566 231.29 436.81Z" fill="#263238"/>
<path d="M249.478 435.17C249.478 435.17 248.998 435.17 248.238 435.25C247.247 435.383 246.313 435.796 245.548 436.441C244.783 437.086 244.218 437.935 243.918 438.89C243.688 439.62 243.668 440.1 243.638 440.1C243.608 440.1 243.638 439.98 243.638 439.76C243.656 439.452 243.71 439.146 243.798 438.85C244.072 437.852 244.64 436.96 245.428 436.29C246.224 435.628 247.199 435.217 248.228 435.11C248.537 435.074 248.849 435.074 249.158 435.11C249.267 435.114 249.375 435.134 249.478 435.17Z" fill="#263238"/>
<path d="M247.539 428.21C247.692 429.357 247.773 430.513 247.779 431.67C247.85 432.822 247.85 433.978 247.779 435.13C247.631 433.986 247.551 432.834 247.539 431.68C247.474 430.524 247.474 429.366 247.539 428.21Z" fill="#263238"/>
<path d="M241.449 438.61C240.651 438.828 239.826 438.933 238.999 438.92C238.174 438.986 237.344 438.946 236.529 438.8C236.529 438.74 237.639 438.8 238.989 438.72C240.339 438.64 241.439 438.55 241.449 438.61Z" fill="#263238"/>
<path d="M244.75 438.52C244.75 438.52 244.67 438.75 244.56 439.01C244.45 439.27 244.4 439.49 244.34 439.49C244.28 439.49 244.25 439.22 244.34 438.93C244.43 438.64 244.71 438.48 244.75 438.52Z" fill="#263238"/>
<path d="M246 436.94C246 436.94 245.94 437.15 245.77 437.33C245.6 437.51 245.43 437.63 245.39 437.59C245.35 437.55 245.45 437.38 245.62 437.19C245.79 437 245.91 436.9 246 436.94Z" fill="#263238"/>
<path d="M247.709 436.18C247.709 436.24 247.479 436.24 247.229 436.33C246.979 436.42 246.809 436.57 246.769 436.53C246.729 436.49 246.859 436.25 247.159 436.14C247.459 436.03 247.729 436.13 247.709 436.18Z" fill="#263238"/>
<path d="M248.999 435.81C248.999 435.86 248.929 435.95 248.789 436.01C248.649 436.07 248.519 436.07 248.499 436.01C248.479 435.95 248.569 435.87 248.709 435.81C248.849 435.75 248.999 435.76 248.999 435.81Z" fill="#263238"/>
<path d="M191.999 388.35L195.899 380.25L211.129 387.47L205.539 399.38L204.539 398.99C200.229 397.24 182.739 389.75 180.339 387.57C177.679 385.14 191.999 388.35 191.999 388.35Z" fill="#5C4AE4"/>
<g opacity="0.5">
<path opacity="0.5" d="M200.068 396.64C200.904 395.465 202.142 394.639 203.548 394.32C204.933 393.996 206.389 394.203 207.628 394.9L205.628 399.16L200.068 396.64Z" fill="white"/>
</g>
<g opacity="0.4">
<path opacity="0.4" d="M184.89 387C184.89 387 179.74 386.16 179.95 387.17C180.16 388.18 197.54 396.41 205.53 399.37L205.67 399.02L185.31 389.59C185.31 389.59 185.76 387.46 184.89 387Z" fill="white"/>
</g>
<path d="M205.91 399.13C205.815 399.114 205.724 399.084 205.64 399.04L204.86 398.73L202 397.54C199.62 396.54 196.36 395.06 192.78 393.37C189.2 391.68 186.01 390.09 183.72 388.9L181 387.48L180.27 387.08L180.02 386.92L180.29 387.04L181.04 387.4L183.78 388.77C186.1 389.92 189.3 391.5 192.87 393.19C196.44 394.88 199.69 396.35 202.06 397.4L204.85 398.65L205.61 399L205.91 399.13Z" fill="#263238"/>
<path d="M185.199 389.84C185.294 389.326 185.331 388.803 185.309 388.28C185.215 387.763 185.068 387.257 184.869 386.77C185.253 387.175 185.48 387.703 185.509 388.26C185.607 388.807 185.497 389.371 185.199 389.84Z" fill="#263238"/>
<path d="M190.769 389.69C190.709 389.69 190.619 389.33 190.569 388.88C190.519 388.43 190.509 388.05 190.569 388.04C190.692 388.293 190.76 388.569 190.769 388.85C190.829 389.31 190.829 389.68 190.769 389.69Z" fill="#263238"/>
<path d="M192.309 389.62C192.259 389.62 192.099 389.37 191.939 389.01C191.779 388.65 191.709 388.34 191.769 388.32C191.829 388.3 191.979 388.57 192.129 388.93C192.279 389.29 192.359 389.6 192.309 389.62Z" fill="#263238"/>
<path d="M193.77 388.55C193.473 388.524 193.186 388.431 192.93 388.28C192.645 388.186 192.386 388.028 192.17 387.82C192.467 387.846 192.754 387.939 193.01 388.09C193.46 388.3 193.8 388.5 193.77 388.55Z" fill="#263238"/>
<path d="M194.518 387.67C194.174 387.682 193.831 387.624 193.51 387.501C193.189 387.377 192.896 387.19 192.648 386.95C193.271 387.192 193.894 387.432 194.518 387.67Z" fill="#263238"/>
<path d="M190.88 388.12C190.521 388.024 190.182 387.865 189.88 387.65C189.545 387.439 189.231 387.198 188.94 386.93C188.765 386.767 188.604 386.59 188.46 386.4C188.377 386.277 188.345 386.126 188.37 385.98C188.385 385.899 188.425 385.825 188.484 385.768C188.543 385.711 188.618 385.673 188.7 385.66C188.997 385.655 189.293 385.716 189.564 385.839C189.835 385.962 190.075 386.145 190.267 386.373C190.459 386.601 190.597 386.869 190.672 387.158C190.747 387.446 190.756 387.747 190.7 388.04C190.7 388.22 190.61 388.32 190.6 388.31C190.641 387.976 190.624 387.638 190.55 387.31C190.448 386.948 190.247 386.623 189.97 386.37C189.812 386.215 189.624 386.093 189.418 386.012C189.211 385.931 188.991 385.893 188.77 385.9C188.56 385.9 188.53 386.15 188.66 386.33C188.786 386.51 188.93 386.678 189.09 386.83C189.367 387.099 189.664 387.346 189.98 387.57C190.52 387.91 190.9 388.09 190.88 388.12Z" fill="#263238"/>
<path d="M190.609 388.05C190.581 387.787 190.653 387.523 190.809 387.31C190.966 387.07 191.175 386.869 191.419 386.72C191.571 386.614 191.747 386.549 191.93 386.529C192.114 386.51 192.299 386.538 192.469 386.61C192.559 386.679 192.618 386.78 192.634 386.892C192.651 387.004 192.624 387.118 192.559 387.21C192.462 387.352 192.336 387.471 192.189 387.56C191.957 387.718 191.705 387.846 191.439 387.94C191.206 388.039 190.953 388.084 190.699 388.07C190.699 388.07 190.969 387.99 191.389 387.8C191.632 387.694 191.864 387.564 192.079 387.41C192.309 387.27 192.579 386.94 192.349 386.78C192.21 386.736 192.062 386.723 191.917 386.742C191.772 386.761 191.633 386.811 191.509 386.89C191.287 387.019 191.09 387.189 190.929 387.39C190.798 387.597 190.69 387.818 190.609 388.05Z" fill="#263238"/>
<path d="M207.569 394.82C207.569 394.82 207.159 394.57 206.429 394.33C205.485 394.004 204.469 393.952 203.497 394.181C202.526 394.409 201.638 394.908 200.939 395.62C200.389 396.16 200.159 396.62 200.129 396.57C200.162 396.459 200.212 396.354 200.279 396.26C200.437 395.995 200.621 395.748 200.829 395.52C201.527 394.755 202.44 394.218 203.448 393.981C204.456 393.744 205.513 393.817 206.479 394.19C206.766 394.3 207.041 394.441 207.299 394.61C207.489 394.73 207.579 394.81 207.569 394.82Z" fill="#263238"/>
<path d="M208.999 387.74C208.612 388.829 208.161 389.894 207.649 390.93C207.199 391.992 206.689 393.027 206.119 394.03C206.506 392.941 206.957 391.876 207.469 390.84C207.914 389.776 208.425 388.74 208.999 387.74Z" fill="#263238"/>
<path d="M198.849 394.25C198.042 394.076 197.262 393.797 196.529 393.42C195.764 393.101 195.042 392.688 194.379 392.19C194.379 392.14 195.379 392.67 196.609 393.24C197.839 393.81 198.869 394.2 198.849 394.25Z" fill="#263238"/>
<path d="M201.839 395.66C201.839 395.72 201.659 395.83 201.449 396.01C201.239 396.19 201.089 396.37 201.039 396.34C200.989 396.31 201.039 396.06 201.319 395.86C201.599 395.66 201.829 395.61 201.839 395.66Z" fill="#263238"/>
<path d="M203.629 394.79C203.629 394.85 203.469 394.96 203.239 395.04C203.009 395.12 202.799 395.16 202.779 395.1C202.759 395.04 202.939 394.94 203.169 394.85C203.399 394.76 203.609 394.74 203.629 394.79Z" fill="#263238"/>
<path d="M205.538 394.92C205.538 394.92 205.298 394.86 205.038 394.84C204.778 394.82 204.558 394.84 204.538 394.84C204.518 394.84 204.738 394.64 205.068 394.68C205.398 394.72 205.578 394.88 205.538 394.92Z" fill="#263238"/>
<path d="M206.83 395.16C206.83 395.16 206.7 395.25 206.55 395.24C206.4 395.23 206.28 395.17 206.29 395.12C206.3 395.07 206.42 395.02 206.56 395.03C206.7 395.04 206.83 395.1 206.83 395.16Z" fill="#263238"/>
<path d="M302.999 270.66L299.419 252.66C296.819 238 276.219 237 276.219 237L259.999 236.73C259.999 236.73 247.999 235.12 240.609 243.46C232.959 252.09 223.549 262.3 223.549 262.3L230.729 280.37L247.729 266.37C246.307 268.864 245.524 271.67 245.449 274.54C245.449 279.33 250.449 281.54 250.449 281.54L251.999 296.07L246.999 319.6L299.809 317.48C298.917 309.588 296.247 302.001 291.999 295.29L292.999 270.66H302.999Z" fill="#5C4AE4"/>
<path d="M280.37 250.53C280.511 250.9 280.605 251.286 280.65 251.68C280.82 252.53 281.02 253.58 281.27 254.83C281.81 257.61 282.51 261.23 283.27 265.23C284.03 269.23 284.71 272.99 285.13 275.67C285.35 277.01 285.5 278.1 285.59 278.85C285.662 279.239 285.685 279.635 285.66 280.03C285.528 279.658 285.437 279.272 285.39 278.88C285.22 278.03 285.01 276.98 284.77 275.73C284.23 272.95 283.53 269.33 282.77 265.33C282.01 261.33 281.33 257.58 280.91 254.89C280.69 253.55 280.54 252.47 280.45 251.71C280.385 251.32 280.358 250.925 280.37 250.53Z" fill="#263238"/>
<path d="M303.309 269.72C300.064 269.998 296.805 270.098 293.549 270.02C290.294 270.116 287.036 270.04 283.789 269.79C287.035 269.519 290.293 269.422 293.549 269.5C296.804 269.404 300.062 269.477 303.309 269.72Z" fill="#263238"/>
<path d="M305.319 286C304.319 277.38 302.889 270 302.889 270H284.189C284.189 270 286.509 281 285.999 283.5C285.539 285.71 249.309 287.17 239.869 287.32C239.299 286.9 238.489 287.61 237.759 286.97C237.115 286.398 236.57 285.722 236.149 284.97C235.592 284.058 235.158 283.076 234.859 282.05C234.824 281.858 234.733 281.68 234.598 281.539C234.463 281.398 234.289 281.3 234.099 281.256C233.908 281.213 233.709 281.226 233.526 281.294C233.343 281.362 233.184 281.483 233.069 281.64C232.689 282.45 233.119 285.14 234.909 287.74C236.699 290.34 231.999 288.99 230.279 288.53C228.559 288.07 223.159 286.9 222.609 287.33C221.789 287.96 222.299 288.97 224.029 289.39C225.759 289.81 230.869 291.39 230.589 292.39C230.309 293.39 221.589 290.82 221.589 290.82C221.589 290.82 219.809 289.99 219.449 291.04C218.809 292.94 228.279 294.86 229.189 295.04C229.819 295.16 229.549 296.17 228.879 296.04C228.209 295.91 220.219 293.37 219.549 295.3C219.029 296.78 227.329 296.96 228.699 298.42C230.069 299.88 222.419 297.63 221.979 299.06C221.819 299.6 224.979 299.84 229.579 300.49C234.281 300.939 239.007 301.106 243.729 300.99C254.339 301.57 291.859 302.35 299.869 301.78C309.189 301.07 305.679 289 305.319 286Z" fill="#FFBE9D"/>
<path d="M245.898 271.17C246.044 270.347 246.258 269.537 246.538 268.75C246.758 268 247.028 267.12 247.368 266.15C247.538 265.67 247.728 265.15 247.938 264.64C248.058 264.36 248.208 264.12 248.278 263.89C248.358 263.638 248.392 263.374 248.378 263.11C248.329 262.552 248.246 261.998 248.128 261.45C248.028 260.91 247.928 260.39 247.828 259.88C247.668 258.88 247.508 258.02 247.368 257.2C247.183 256.383 247.082 255.548 247.068 254.71C247.375 255.491 247.596 256.302 247.728 257.13C247.908 257.94 248.098 258.83 248.298 259.78L248.628 261.36C248.765 261.932 248.855 262.514 248.898 263.1C248.915 263.422 248.871 263.744 248.768 264.05C248.664 264.32 248.544 264.584 248.408 264.84C248.198 265.34 247.998 265.84 247.818 266.32C247.488 267.23 247.168 268.08 246.888 268.86C246.656 269.668 246.323 270.444 245.898 271.17Z" fill="#263238"/>
<path d="M267.7 203C269.14 204.86 270.7 207 270.39 209.33C270.14 211.33 268.51 213.18 268.78 215.22C269.1 217.57 271.78 219.11 271.96 221.48C272.07 223.48 270.38 224.96 269.19 226.48C268.317 227.604 267.674 228.889 267.298 230.262C266.922 231.635 266.821 233.068 267 234.48C267.197 235.884 267.711 237.225 268.503 238.402C269.294 239.578 270.343 240.559 271.57 241.27C272.814 241.958 274.214 242.312 275.636 242.298C277.057 242.284 278.45 241.902 279.68 241.19C281.848 239.678 283.427 237.463 284.15 234.92C285.27 231.7 285.57 227.92 283.66 225.08C282.88 223.94 281.75 222.96 281.5 221.6C281.18 219.88 282.4 218.26 282.59 216.52C282.85 214.19 281.24 212.06 279.46 210.52C277.68 208.98 275.58 207.76 274.25 205.83" fill="#263238"/>
<g opacity="0.3">
<path opacity="0.3" d="M281 255.4C281.65 265.4 282 274.65 282.24 284.68C283.575 284.622 284.871 284.215 286 283.5C286.51 279.22 283.27 266.19 281 255.4Z" fill="black"/>
</g>
<path d="M256.619 250.79C256.474 250.027 256.554 249.238 256.849 248.52C257.189 247.3 257.719 246.41 257.849 246.47C257.806 247.223 257.637 247.963 257.349 248.66C257.22 249.404 256.974 250.123 256.619 250.79Z" fill="#FAFAFA"/>
<path d="M245.998 250.76C245.918 250.88 245.208 250.53 244.518 249.87C243.828 249.21 243.428 248.52 243.518 248.44C243.608 248.36 244.188 248.87 244.848 249.49C245.508 250.11 246.068 250.64 245.998 250.76Z" fill="#FAFAFA"/>
<path d="M235.85 259.06C235.85 259.06 235.76 258.97 235.7 258.79H235.93C236.086 259.606 236.086 260.444 235.93 261.26C235.87 262.193 235.52 263.085 234.93 263.81C235.047 262.919 235.224 262.037 235.46 261.17C235.64 260.17 235.68 259.23 235.74 258.8H235.97C235.91 259 235.89 259.05 235.85 259.06Z" fill="#FAFAFA"/>
<path d="M235.4 269.44C234.636 269.408 233.889 269.21 233.21 268.86C232.05 268.41 231.15 267.94 231.21 267.8C231.977 267.83 232.728 268.028 233.41 268.38C234.55 268.83 235.45 269.3 235.4 269.44Z" fill="#FAFAFA"/>
<path d="M244 263.69C243.86 263.69 243.88 262.79 244.21 261.76C244.54 260.73 245 259.99 245.13 260.05C245.26 260.11 245.01 260.92 244.7 261.91C244.39 262.9 244.1 263.71 244 263.69Z" fill="#FAFAFA"/>
<path d="M253 240.93C253 241.07 252.25 241.22 251.31 241.27C250.37 241.32 249.61 241.27 249.6 241.09C249.59 240.91 250.35 240.79 251.29 240.75C252.23 240.71 253 240.78 253 240.93Z" fill="#FAFAFA"/>
<path d="M254.828 260.46C254.738 260.56 253.928 259.96 253.388 258.86C252.984 258.232 252.841 257.472 252.988 256.74C253.138 256.74 253.348 257.63 253.848 258.63C254.348 259.63 254.938 260.35 254.828 260.46Z" fill="#FAFAFA"/>
<path d="M272.59 256.27C272.69 256.37 272.06 257.17 271.11 257.99C270.16 258.81 269.27 259.31 269.19 259.19C269.11 259.07 269.84 258.39 270.77 257.59C271.7 256.79 272.49 256.17 272.59 256.27Z" fill="#FAFAFA"/>
<path d="M263.809 253.51C263.889 253.63 263.339 254.18 262.569 254.75C261.799 255.32 261.099 255.7 261.019 255.58C260.939 255.46 261.489 254.91 262.259 254.34C263.029 253.77 263.719 253.4 263.809 253.51Z" fill="#FAFAFA"/>
<path d="M268.119 246.33C267.307 246.16 266.565 245.748 265.989 245.15C264.989 244.26 264.379 243.3 264.499 243.22C264.619 243.14 265.339 243.91 266.329 244.75C267.319 245.59 268.189 246.2 268.119 246.33Z" fill="#FAFAFA"/>
<path d="M278.229 243.53C278.309 243.64 277.749 244.22 276.959 244.81C276.169 245.4 275.459 245.81 275.369 245.69C275.279 245.57 275.849 245 276.639 244.4C277.429 243.8 278.139 243.41 278.229 243.53Z" fill="#FAFAFA"/>
<path d="M286.669 247.53C286.656 246.807 286.764 246.087 286.989 245.4C287.219 244.25 287.369 243.3 287.519 243.31C287.741 244.023 287.741 244.787 287.519 245.5C287.269 246.7 286.799 247.58 286.669 247.53Z" fill="#FAFAFA"/>
<path d="M288.159 257.16C288.059 257.26 287.159 256.59 286.159 255.65C285.159 254.71 284.389 253.87 284.489 253.77C284.589 253.67 285.489 254.33 286.489 255.27C287.489 256.21 288.259 257.05 288.159 257.16Z" fill="#FAFAFA"/>
<path d="M294.998 253.11C294.868 253.05 295.128 252.11 295.578 251.11C296.028 250.11 296.508 249.23 296.638 249.29C296.602 249.993 296.404 250.677 296.058 251.29C295.598 252.35 295.118 253.17 294.998 253.11Z" fill="#FAFAFA"/>
<path d="M295.35 264.68C295.52 263.843 295.861 263.05 296.35 262.35C296.686 261.573 297.172 260.87 297.78 260.28C297.61 261.114 297.269 261.904 296.78 262.6C296.445 263.381 295.959 264.088 295.35 264.68Z" fill="#FAFAFA"/>
<path d="M288.609 266.45C288.489 266.54 287.809 265.82 287.069 264.84C286.329 263.86 285.839 263.01 285.949 262.92C286.059 262.83 286.759 263.55 287.489 264.53C288.219 265.51 288.719 266.36 288.609 266.45Z" fill="#FAFAFA"/>
<path d="M275.889 271.4C276.13 270.352 276.597 269.369 277.259 268.52C277.781 267.583 278.505 266.773 279.379 266.15C278.911 267.092 278.349 267.983 277.699 268.81C277.185 269.732 276.578 270.6 275.889 271.4Z" fill="#FAFAFA"/>
<path d="M266.749 270.48C266.137 269.806 265.659 269.022 265.339 268.17C264.867 267.39 264.544 266.528 264.389 265.63C265.476 267.082 266.277 268.728 266.749 270.48Z" fill="#FAFAFA"/>
<path d="M255.238 267.8C254.665 268.636 253.955 269.369 253.138 269.97C252.436 270.701 251.614 271.306 250.708 271.76C250.608 271.65 251.548 270.68 252.798 269.58C253.503 268.85 254.328 268.248 255.238 267.8Z" fill="#FAFAFA"/>
<path d="M259.609 280.3C259.489 280.39 258.669 279.46 257.609 278.38C256.549 277.3 255.609 276.46 255.699 276.38C256.585 276.727 257.374 277.283 257.999 278C258.717 278.623 259.269 279.413 259.609 280.3Z" fill="#FAFAFA"/>
<path d="M267.67 280.68C267.727 279.764 268.035 278.882 268.56 278.13C269.31 276.83 270.22 275.99 270.32 276.13C269.961 276.931 269.519 277.692 269 278.4C268.636 279.204 268.191 279.968 267.67 280.68Z" fill="#FAFAFA"/>
<path d="M278.999 282C278.083 281.568 277.248 280.983 276.529 280.27C275.699 279.684 274.972 278.965 274.379 278.14C275.298 278.571 276.137 279.156 276.859 279.87C277.686 280.456 278.409 281.176 278.999 282Z" fill="#FAFAFA"/>
<path d="M278 252.22C277.216 252.094 276.484 251.747 275.89 251.22C274.83 250.45 274.18 249.6 274.28 249.5C274.38 249.4 275.18 250.06 276.2 250.8C277.22 251.54 278 252.09 278 252.22Z" fill="#FAFAFA"/>
<path d="M261.63 303.47C261.69 303.61 260.88 304.04 259.98 304.71C259.08 305.38 258.41 306.01 258.3 305.92C258.19 305.83 258.7 305 259.67 304.29C260.64 303.58 261.59 303.34 261.63 303.47Z" fill="#FAFAFA"/>
<path d="M273.73 308.41C272.858 307.059 272.295 305.533 272.08 303.94C272.948 305.293 273.511 306.818 273.73 308.41Z" fill="#FAFAFA"/>
<path d="M285.93 304.09C286.04 304.19 285.41 305.01 284.54 305.92C283.67 306.83 282.88 307.49 282.78 307.39C282.68 307.29 283.3 306.47 284.17 305.56C285.04 304.65 285.83 304 285.93 304.09Z" fill="#FAFAFA"/>
<path d="M294.999 310.67C294.889 310.78 294.079 310.14 292.879 309.91C291.679 309.68 290.689 309.91 290.639 309.78C290.974 309.538 291.361 309.377 291.769 309.311C292.177 309.245 292.594 309.276 292.989 309.4C294.309 309.67 295.069 310.59 294.999 310.67Z" fill="#FAFAFA"/>
<path d="M299.928 315.12C299.928 315.12 230.868 300.65 224.178 303.82C217.488 306.99 186.658 383.2 186.658 383.2L211.488 393.88L238.198 329.12C238.198 329.12 286.548 346.78 294.998 345C303.448 343.22 299.928 315.12 299.928 315.12Z" fill="#455A64"/>
<path d="M269.06 319.18C268.01 319.53 228.06 335.96 225.24 341.23C222.42 346.5 229.34 434.17 229.34 434.17H252.06L250.66 356.26L295 345L269.06 319.18Z" fill="#455A64"/>
<path d="M295.229 345.21C295.01 345.202 294.793 345.175 294.579 345.13L292.719 344.8C291.109 344.5 288.779 344.04 285.909 343.43C280.179 342.22 272.279 340.43 263.679 337.92C259.379 336.68 255.319 335.38 251.679 334.12C248.039 332.86 244.749 331.6 242.059 330.45C240.699 329.9 239.489 329.35 238.429 328.87C237.369 328.39 236.429 327.98 235.719 327.6L234.039 326.75C233.834 326.661 233.64 326.55 233.459 326.42C233.672 326.483 233.879 326.564 234.079 326.66L235.809 327.42C236.549 327.76 237.469 328.16 238.539 328.61C239.609 329.06 240.829 329.61 242.189 330.11C244.899 331.22 248.189 332.39 251.839 333.67C255.489 334.95 259.559 336.18 263.839 337.42C272.429 339.89 280.299 341.77 286.009 343.07L292.779 344.6L294.619 345.02C294.828 345.062 295.033 345.126 295.229 345.21Z" fill="#263238"/>
<path d="M225.249 361.37C225.137 360.941 225.067 360.502 225.039 360.06C224.939 359.11 224.809 357.9 224.659 356.46C224.509 355.02 224.349 353.11 224.169 351.13C223.863 348.937 223.863 346.713 224.169 344.52C224.612 342.304 225.775 340.296 227.479 338.81C228.834 337.603 230.369 336.614 232.029 335.88C233.129 335.379 234.253 334.935 235.399 334.55C235.812 334.384 236.241 334.26 236.679 334.18C236.679 334.27 234.919 334.9 232.189 336.18C230.589 336.933 229.112 337.924 227.809 339.12C226.205 340.556 225.107 342.471 224.679 344.58C224.399 346.728 224.399 348.902 224.679 351.05C224.829 353.05 224.959 354.84 225.069 356.39C225.179 357.94 225.229 359.05 225.279 360C225.32 360.456 225.309 360.916 225.249 361.37Z" fill="#263238"/>
<path d="M245.18 353.84C247.099 354.307 248.92 355.11 250.56 356.21C248.642 355.738 246.822 354.936 245.18 353.84Z" fill="#263238"/>
<path d="M247.189 351.44C247.837 352.261 248.441 353.116 248.999 354C249.999 355.37 251.069 356.32 250.999 356.44C250.021 355.965 249.193 355.228 248.609 354.31C247.874 353.507 247.381 352.512 247.189 351.44Z" fill="#263238"/>
<path d="M255.91 355C255.91 355 255.84 355.19 255.56 355.36C255.154 355.575 254.699 355.682 254.24 355.67C253.609 355.648 252.978 355.665 252.35 355.72C252.013 355.77 251.708 355.947 251.498 356.215C251.287 356.483 251.188 356.821 251.22 357.16C251.297 359.188 251.203 361.218 250.94 363.23C250.683 361.207 250.603 359.166 250.7 357.13C250.705 356.666 250.855 356.214 251.13 355.84C251.424 355.508 251.83 355.295 252.27 355.24C252.937 355.204 253.606 355.224 254.27 355.3C254.833 355.342 255.398 355.238 255.91 355Z" fill="#263238"/>
<path opacity="0.3" d="M250.459 303.37L297.529 307.15L295.519 301.88L250.919 301.24L250.459 303.37Z" fill="black"/>
<path d="M377.859 293.04H100.369V300.44H115.209L107.559 441.18L111.779 441.41L119.449 300.44H362.729L369.249 441.3H373.489L366.959 300.44H377.859V293.04Z" fill="#263238"/>
<path d="M181.299 249.28L196.689 294.24H266.369L265.849 291.93L237.679 291.05L224.699 249.25L181.299 249.28Z" fill="#263238"/>
<path d="M212.179 270.39C212.639 272.24 211.849 274.04 210.419 274.39C208.989 274.74 207.419 273.59 206.989 271.74C206.559 269.89 207.319 268.1 208.749 267.74C210.179 267.38 211.719 268.55 212.179 270.39Z" fill="white"/>
</svg>
